<?xml version="1.0" standalone="no"?>
<!DOCTYPE svg PUBLIC "-//W3C//DTD SVG 20010904//EN"
 "http://www.w3.org/TR/2001/REC-SVG-20010904/DTD/svg10.dtd">
<svg version="1.0" xmlns="http://www.w3.org/2000/svg"
 width="700.000000pt" height="700.000000pt" viewBox="0 0 700.000000 700.000000"
 preserveAspectRatio="xMidYMid meet">
<metadata>
Created by potrace 1.14, written by Peter Selinger 2001-2017
</metadata>
<g transform="translate(0.000000,700.000000) scale(0.100000,-0.100000)"
fill="#000000" stroke="none">
<path d="M1540 5083 c-152 -24 -319 -111 -435 -227 -77 -77 -104 -115 -148
-202 -59 -116 -79 -194 -84 -334 -8 -189 31 -328 131 -478 108 -162 259 -270
453 -328 120 -35 289 -38 410 -6 232 61 413 208 524 422 91 176 108 415 44
606 -48 142 -114 244 -222 344 -154 141 -333 209 -543 207 -58 0 -116 -2 -130
-4z"/>
<path d="M3334 5075 c-418 -92 -694 -493 -627 -910 43 -275 209 -491 469 -612
41 -18 74 -38 74 -43 0 -6 -82 -10 -213 -10 l-214 0 1 -1057 1 -1058 675 0
675 0 0 1055 0 1055 -212 3 c-126 1 -213 6 -213 12 0 5 33 25 74 44 98 45 171
94 236 159 281 280 323 695 104 1023 -112 170 -288 290 -492 337 -81 19 -259
20 -338 2z"/>
<path d="M5130 5066 c-147 -40 -243 -93 -350 -192 -57 -54 -150 -171 -150
-189 0 -5 -6 -16 -14 -24 -21 -23 -73 -184 -83 -257 -37 -252 47 -504 230
-686 275 -275 714 -310 1031 -84 149 106 251 252 308 436 30 99 34 300 8 405
-76 302 -307 528 -612 599 -99 23 -266 19 -368 -8z"/>
</g>
</svg>
